  <svg
    width="12"
    height="22"
    viewBox="0 0 12 22"
    fill="none"
    xmlns="http://www.w3.org/2000/svg"
  >
    <rect width="12" height="22" rx="4" fill="white" />
    <path
      fill-rule="evenodd"
      clip-rule="evenodd"
      d="M4 21C2.34315 21 1 19.6569 1 18V4C1 2.34315 2.34314 1 4 1H8C9.65685 1 11 2.34315 11 4V18C11 19.6569 9.65685 21 8 21H4ZM3 18L3 4C3 3.44772 3.44771 3 4 3C4.55228 3 5 3.44772 5 4L5 18C5 18.5523 4.55228 19 4 19C3.44772 19 3 18.5523 3 18ZM7 18C7 18.5523 7.44772 19 8 19C8.55229 19 9 18.5523 9 18V4C9 3.44772 8.55228 3 8 3C7.44771 3 7 3.44772 7 4L7 18Z"
      fill="#606060"
    />
  </svg>