  <svg
    width="12"
    height="22"
    viewBox="0 0 12 22"
    fill="none"
    xmlns="http://www.w3.org/2000/svg"
  >
    <g id="Handel">
      <rect
        id="White Layer"
        y="0.00012207"
        width="12"
        height="22"
        rx="4"
        fill="white"
      />
      <path
        id="Red Layer"
        fill-rule="evenodd"
        clip-rule="evenodd"
        d="M4 21.0001C2.34315 21.0001 1 19.657 1 18.0001V4.00012C1 2.34327 2.34314 1.00012 4 1.00012H8C9.65685 1.00012 11 2.34327 11 4.00012V18.0001C11 19.657 9.65685 21.0001 8 21.0001H4ZM3 18.0001L3 4.00012C3 3.44784 3.44771 3.00012 4 3.00012C4.55228 3.00012 5 3.44784 5 4.00012L5 18.0001C5 18.5524 4.55228 19.0001 4 19.0001C3.44772 19.0001 3 18.5524 3 18.0001ZM7 18.0001C7 18.5524 7.44772 19.0001 8 19.0001C8.55229 19.0001 9 18.5524 9 18.0001V4.00012C9 3.44784 8.55228 3.00012 8 3.00012C7.44771 3.00012 7 3.44784 7 4.00012L7 18.0001Z"
        fill="#3C96E2"
      />
    </g>
  </svg>